<svg id="svg" version="1.1" width="400" height="400" xmlns="http://www.w3.org/2000/svg" xmlns:xlink="http://www.w3.org/1999/xlink" style="display: block;"><g id="svgg"><path id="path0" d="M178.125 44.285 C 122.473 48.439,86.203 67.179,70.990 99.641 C 56.249 131.099,54.398 202.734,67.367 239.844 C 75.734 263.783,87.500 276.579,112.305 288.713 L 125.781 295.305 125.781 325.798 L 125.781 356.290 127.930 355.158 C 130.293 353.913,135.656 348.452,142.201 340.625 C 149.872 331.451,168.594 311.253,172.027 308.448 C 178.942 302.797,178.713 302.843,200.781 302.705 C 254.319 302.371,295.622 291.118,313.470 272.003 C 336.700 247.126,346.018 193.170,337.440 133.203 C 330.346 83.613,309.499 61.567,259.158 50.420 C 235.434 45.167,201.122 42.569,178.125 44.285 M218.887 92.898 C 242.950 99.076,264.154 116.892,274.998 140.045 C 282.036 155.072,285.267 180.244,280.486 182.803 C 275.816 185.302,273.696 182.652,272.683 173.047 C 268.233 130.852,246.531 107.503,205.859 101.154 C 194.325 99.353,193.750 99.098,193.750 95.776 C 193.750 90.050,203.462 88.938,218.887 92.898 M141.830 94.104 C 147.549 96.494,158.949 109.297,167.195 122.592 C 176.981 138.371,176.748 143.095,165.746 151.973 C 156.293 159.601,155.019 165.577,160.422 176.954 C 168.720 194.427,181.570 207.276,199.944 216.472 C 211.191 222.101,216.080 221.355,222.790 212.986 C 234.482 198.402,242.216 200.062,272.451 223.644 C 287.859 235.662,288.029 244.904,273.114 259.842 C 257.758 275.222,249.853 275.481,222.326 261.502 C 170.296 235.081,131.277 193.183,109.754 140.625 C 105.568 130.402,105.236 118.789,108.922 111.511 C 115.041 99.427,132.486 90.200,141.830 94.104 M218.583 114.129 C 243.434 120.445,263.235 146.675,260.408 169.531 C 259.240 178.976,252.347 176.791,250.842 166.500 C 246.840 139.129,236.020 127.912,208.203 122.294 C 201.695 120.980,200.000 119.813,200.000 116.648 C 200.000 111.454,205.257 110.741,218.583 114.129 M223.623 136.905 C 232.179 141.419,238.862 150.841,239.647 159.496 C 240.654 170.609,231.929 171.602,229.802 160.617 C 228.017 151.397,223.264 146.410,214.063 144.103 C 207.661 142.497,205.783 140.861,206.802 137.777 C 208.347 133.103,215.696 132.722,223.623 136.905 " stroke="none" fill="#ffffff" fill-rule="evenodd"></path><path id="path1" d="M73.927 12.991 C 42.078 19.863,17.399 45.436,12.537 76.604 C 11.869 80.889,11.693 114.437,11.872 203.906 L 12.114 325.391 13.900 331.641 C 22.058 360.192,45.362 381.825,74.429 387.829 C 83.462 389.694,317.282 389.702,326.313 387.837 C 355.451 381.818,378.711 360.237,386.881 331.641 L 388.667 325.391 388.909 203.906 C 389.170 73.526,389.246 76.355,385.121 64.223 C 376.934 40.145,358.116 22.388,332.140 14.229 L 325.391 12.109 202.344 11.971 C 96.159 11.851,78.561 11.991,73.927 12.991 M218.008 44.575 C 298.268 50.873,328.916 73.616,337.440 133.203 C 346.018 193.170,336.700 247.126,313.470 272.003 C 295.622 291.118,254.319 302.371,200.781 302.705 C 178.713 302.843,178.942 302.797,172.027 308.448 C 168.594 311.253,149.872 331.451,142.201 340.625 C 135.656 348.452,130.293 353.913,127.930 355.158 L 125.781 356.290 125.781 325.798 L 125.781 295.305 112.305 288.713 C 87.500 276.579,75.734 263.783,67.367 239.844 C 52.023 195.941,57.178 117.977,77.393 88.209 C 98.909 56.525,153.685 39.527,218.008 44.575 M195.088 91.743 C 194.342 92.488,193.750 94.273,193.750 95.776 C 193.750 99.098,194.325 99.353,205.859 101.154 C 246.531 107.503,268.233 130.852,272.683 173.047 C 273.696 182.652,275.816 185.302,280.486 182.803 C 285.267 180.244,282.036 155.072,274.998 140.045 C 264.154 116.892,242.950 99.076,218.887 92.898 C 210.066 90.633,196.839 89.991,195.088 91.743 M130.859 94.066 C 109.440 100.868,101.052 119.374,109.754 140.625 C 131.277 193.183,170.296 235.081,222.326 261.502 C 249.853 275.481,257.758 275.222,273.114 259.842 C 288.029 244.904,287.859 235.662,272.451 223.644 C 242.216 200.062,234.482 198.402,222.790 212.986 C 216.080 221.355,211.191 222.101,199.944 216.472 C 181.570 207.276,168.720 194.427,160.422 176.954 C 155.019 165.577,156.293 159.601,165.746 151.973 C 178.272 141.865,176.783 133.495,158.239 109.796 C 146.526 94.826,140.096 91.132,130.859 94.066 M201.631 113.213 C 197.588 117.255,200.042 120.646,208.203 122.294 C 236.020 127.912,246.840 139.129,250.842 166.500 C 252.347 176.791,259.240 178.976,260.408 169.531 C 263.235 146.675,243.434 120.445,218.583 114.129 C 208.552 111.579,203.536 111.308,201.631 113.213 M210.215 134.597 C 203.574 136.955,205.608 141.983,214.063 144.103 C 223.264 146.410,228.017 151.397,229.802 160.617 C 231.929 171.602,240.654 170.609,239.647 159.496 C 238.358 145.279,221.143 130.715,210.215 134.597 " stroke="none" fill="#7d51a0" fill-rule="evenodd"></path></g></svg>